# xmcd CD database file
# Copyright (C) 1995-1998 Ti Kan
#
# Track frame offsets:
#	165
#	21882
#	46496
#	69843
#	93673
#	117709
#	166111
#	193865
#	230450
#
# Disc length: 3689 seconds
#
# Revision: 1
# Processed by: cddbd v1.4b42PL1 Copyright (c) Steve Scherf et al.
# Submitted via: CDex 1.30
#
DISCID=770e6709
DTITLE=Lamont Cranston - Lamont Live
DYEAR=2001
DGENRE=Blues
TTITLE0=Madison Blues
TTITLE1=Fever
TTITLE2=Streets Around Here
TTITLE3=Two-Way Wishin
TTITLE4=Hold On
TTITLE5=Sweet Sixteen
TTITLE6=Sadie
TTITLE7=Upper Mississippi Shakedown
TTITLE8=E Jam
EXTD=\nYEAR: 2001  ID3G:   0
EXTT0=
EXTT1=
EXTT2=
EXTT3=
EXTT4=
EXTT5=
EXTT6=
EXTT7=
EXTT8=
PLAYORDER=
